<?xml version="1.0" standalone="no"?><!DOCTYPE svg PUBLIC "-//W3C//DTD SVG 1.1//EN" "http://www.w3.org/Graphics/SVG/1.1/DTD/svg11.dtd"><svg t="1490785367673" class="icon" style="" viewBox="0 0 1024 1024" version="1.1" xmlns="http://www.w3.org/2000/svg" p-id="3384" xmlns:xlink="http://www.w3.org/1999/xlink" width="200" height="200"><defs><style type="text/css"></style></defs><path d="M947.068352 483.499899 539.835464 77.438697c-0.204661-0.215918-0.404206-0.435928-0.61603-0.647753-0.466628-0.466628-0.943488-0.916882-1.428535-1.352811-14.476713-13.650905-37.289278-13.399171-51.465139 0.775666-1.877767 1.877767-3.505847 3.910053-4.895497 6.052856L78.479911 484.078067c-14.44192 14.44192-14.44192 37.85619 0 52.29811 8.866948 8.866948 21.1149 12.280698 32.589233 10.258645l63.878866-0.13917c39.701211 1.958608 42.026162 12.245905 42.160215 66.171072l0.206708 236.099253c3.382027 37.700647 35.048237 67.258847 73.628928 67.258847l73.943083 0c40.835034 0 73.944106-33.108049 73.944106-73.944106l0-39.283702 0.230244 0-0.102331-70.222341c1.779529-25.360598 7.944949-34.088376 29.228695-37.083593l91.142813-0.132006c17.821901 2.924609 24.808012 10.501168 27.506471 30.131251l0.179079 123.031081c3.26537 37.817304 34.983769 67.503417 73.647347 67.503417l73.944106 0c40.835034 0 73.944106-33.108049 73.944106-73.944106l0-39.283702 0.268106 0-0.249687-257.034051c0-20.417005-16.555048-36.973076-36.972053-36.973076-20.418029 0-36.972053 16.556071-36.972053 36.973076l0.221034 227.595578-0.147356 21.363564c0.090051-3.604084 0.134053-7.485485 0.156566-11.652388l0.057305 59.109236-0.540306 0.001023 0.326435-47.457872c-0.889253 35.70827-6.231935 44.847417-38.08234 47.168276-36.592406-2.78237-35.646871-15.458063-35.646871-73.158207l-0.107447 12.237719-0.067538-46.339398-0.130983 0 0-39.282678c0-40.835034-33.108049-73.944106-73.944106-73.944106l-19.913539 0-133.059482 0.193405c-37.544081 2.553149-67.38676 33.119305-68.788689 70.968331l0.143263 98.326423c-0.458441 39.308261-4.394077 48.78203-36.988426 51.058886-26.218128-1.851161-34.368762-8.477069-36.887119-32.158421l-0.194428-223.051075-0.085958 0 0-39.283702c0-40.835034-33.108049-73.943083-73.944106-73.943083l-23.199375 0 319.264371-318.361815 381.706515 380.644323c14.44192 14.424524 37.857213 14.424524 52.299133 0C961.508225 521.357112 961.508225 497.941819 947.068352 483.499899zM660.948869 842.194304l16.799618 0.109494-16.799618 0.035816L660.948869 842.194304zM291.251875 842.194304l16.806781 0.109494-16.806781 0.035816L291.251875 842.194304z" fill="#8a8a8a" p-id="3385"></path></svg>