<?xml version="1.0" standalone="no"?><!DOCTYPE svg PUBLIC "-//W3C//DTD SVG 1.1//EN" "http://www.w3.org/Graphics/SVG/1.1/DTD/svg11.dtd"><svg t="1490771091410" class="icon" style="" viewBox="0 0 1024 1024" version="1.1" xmlns="http://www.w3.org/2000/svg" p-id="2379" xmlns:xlink="http://www.w3.org/1999/xlink" width="200" height="200"><defs><style type="text/css"></style></defs><path d="M988.236792 976.910665c-17.203092-112.379899-74.236581-215.465528-160.609905-290.269581a480.009713 480.009713 0 0 0-142.287206-85.202594c91.925347-57.508939 153.115185-159.592545 153.115185-276.021433C838.454866 145.692038 692.762828 0 513.037809 0 333.317903 0 187.620752 145.692038 187.620752 325.417057c0 116.428889 61.184726 218.512495 153.115185 276.021433a479.861455 479.861455 0 0 0-142.287206 85.202594c-86.373324 74.804053-143.411925 177.889682-160.609905 290.269581a40.898881 40.898881 0 0 0 80.851975 12.371911c29.498318-192.720638 199.029291-338.054811 394.341896-338.054811 195.312605 0 364.843578 145.334173 394.341895 338.054811a40.909105 40.909105 0 0 0 46.6145 34.242588 40.898881 40.898881 0 0 0 34.2477-46.614499zM269.418514 325.417057C269.418514 191.084683 378.705435 81.797761 513.037809 81.797761s243.619295 109.286922 243.619295 243.619296-109.286922 243.619295-243.619295 243.619295S269.418514 459.74943 269.418514 325.417057z" fill="#000000" p-id="2380"></path></svg>